HIERARCHY
ROOT Hips
{
	OFFSET -32.860001 56.121803 44.745396
	CHANNELS 6 Xposition Yposition Zposition Zrotation Xrotation Yrotation
	JOINT Chest
	{
		OFFSET -0.637402 0.831600 5.390099
		CHANNELS 6 Xposition Yposition Zposition Zrotation Xrotation Yrotation
		JOINT Chest2
		{
			OFFSET 0.000000 0.000000 4.429901
			CHANNELS 6 Xposition Yposition Zposition Zrotation Xrotation Yrotation
			JOINT Neck
			{
				OFFSET 0.000000 0.000000 10.301395
				CHANNELS 6 Xposition Yposition Zposition Zrotation Xrotation Yrotation
				JOINT Head
				{
					OFFSET 0.000000 0.000000 2.173897
					CHANNELS 6 Xposition Yposition Zposition Zrotation Xrotation Yrotation
					End Site
					{
						OFFSET 0.000000 0.000000 8.298004
					}
				}
			}
			JOINT LeftCollar
			{
				OFFSET 2.142401 -0.572701 5.717800
				CHANNELS 6 Xposition Yposition Zposition Zrotation Xrotation Yrotation
				JOINT LeftShoulder
				{
					OFFSET 5.674000 0.000000 0.000000
					CHANNELS 6 Xposition Yposition Zposition Zrotation Xrotation Yrotation
					JOINT LeftElbow
					{
						OFFSET 0.000000 0.000000 -12.238701
						CHANNELS 6 Xposition Yposition Zposition Zrotation Xrotation Yrotation
						JOINT LeftWrist
						{
							OFFSET 0.000000 0.000000 -10.253700
							CHANNELS 6 Xposition Yposition Zposition Zrotation Xrotation Yrotation
							End Site
							{
								OFFSET 0.000000 0.000000 -2.173901
							}
						}
					}
				}
			}
			JOINT RightCollar
			{
				OFFSET -2.882599 -1.580101 6.695801
				CHANNELS 6 Xposition Yposition Zposition Zrotation Xrotation Yrotation
				JOINT RightShoulder
				{
					OFFSET -4.235600 0.000000 0.000000
					CHANNELS 6 Xposition Yposition Zposition Zrotation Xrotation Yrotation
					JOINT RightElbow
					{
						OFFSET 0.000000 0.000000 -10.709900
						CHANNELS 6 Xposition Yposition Zposition Zrotation Xrotation Yrotation
						JOINT RightWrist
						{
							OFFSET 0.000000 0.000000 -11.716801
							CHANNELS 6 Xposition Yposition Zposition Zrotation Xrotation Yrotation
							End Site
							{
								OFFSET 0.000000 0.000000 -2.173901
							}
						}
					}
				}
			}
		}
	}
	JOINT LeftHip
	{
		OFFSET 2.279499 0.210400 -2.475502
		CHANNELS 6 Xposition Yposition Zposition Zrotation Xrotation Yrotation
		JOINT LeftKnee
		{
			OFFSET 0.000000 -0.000004 -20.742800
			CHANNELS 6 Xposition Yposition Zposition Zrotation Xrotation Yrotation
			JOINT LeftAnkle
			{
				OFFSET 0.000000 0.000000 -16.666000
				CHANNELS 6 Xposition Yposition Zposition Zrotation Xrotation Yrotation
				End Site
				{
					OFFSET 0.000000 -8.310898 0.000000
				}
			}
		}
	}
	JOINT RightHip
	{
		OFFSET -1.961899 0.232300 -2.727402
		CHANNELS 6 Xposition Yposition Zposition Zrotation Xrotation Yrotation
		JOINT RightKnee
		{
			OFFSET 0.000000 -0.000004 -20.526800
			CHANNELS 6 Xposition Yposition Zposition Zrotation Xrotation Yrotation
			JOINT RightAnkle
			{
				OFFSET 0.000000 0.000000 -16.867300
				CHANNELS 6 Xposition Yposition Zposition Zrotation Xrotation Yrotation
				End Site
				{
					OFFSET 0.000000 -7.186401 0.000000
				}
			}
		}
	}
}
MOTION
Frames: 9
Frame Time: 0.041667
7.370308 40.325897 24.714890 1073.827807 17.331839 -19.681417 -0.637402 0.831590 5.390098 14.285635 0.934333 -10.920804 -0.000000 0.000005 4.429904 -17.049486 -2.621507 -1.579340 0.000003 -0.000003 10.301394 321.266581 8.939446 8.736685 0.000002 0.000002 2.173902 -359.737867 0.133191 -3.354135 2.142400 -0.572701 5.717809 -21.240193 5.780127 -0.306178 5.673996 -0.000001 0.000007 106.083964 226.555298 124.553841 0.000006 0.000003 -12.238691 286.863465 -560.590235 -129.648165 0.000003 0.000003 -10.253701 -581.001463 -13.634556 57.142111 -2.882604 -1.580106 6.695797 24.131478 16.447825 -4.680347 -4.235610 -0.000008 -0.000011 61.716094 -26.832482 49.572133 0.000002 -0.000006 -10.709906 -34.900682 -27.261684 -32.305828 0.000002 -0.000004 -11.716798 -341.386843 2.550804 18.788746 2.279493 0.210395 -2.475504 521.085077 -10.231667 87.749640 -0.000001 -0.000011 -20.742807 -172.796491 -17.562967 98.909431 -0.000005 0.000003 -16.666004 66.397935 17.809464 49.846478 -1.961898 0.232295 -2.727401 -532.877043 -8.742453 -127.742460 0.000003 -0.000009 -20.526798 712.723246 153.245157 -290.963381 -0.000002 -0.000002 -16.867300 -388.039193 24.854394 -22.817463
7.370907 40.334702 24.714596 1073.783219 17.256744 -19.685985 -0.637403 0.831596 5.390100 14.291745 0.985289 -10.912988 -0.000005 0.000007 4.429903 -16.988685 -2.640462 -1.573048 -0.000003 0.000007 10.301397 321.274805 8.980252 8.759901 -0.000006 0.000003 2.173894 -359.702569 0.165228 -3.284585 2.142395 -0.572697 5.717799 -21.273422 5.858362 -0.256727 5.673995 -0.000001 -0.000007 106.100732 226.565612 124.504964 0.000003 0.000004 -12.238697 286.821882 -560.640396 -129.639518 0.000004 0.000006 -10.253700 -580.929118 -13.679320 57.197732 -2.882606 -1.580091 6.695802 24.186774 16.496022 -4.822594 -4.235609 -0.000004 -0.000002 61.793309 -26.583627 49.760428 0.000002 -0.000006 -10.709900 -35.147710 -27.242109 -32.389659 0.000001 0.000004 -11.716794 -341.409546 2.668827 18.781313 2.279500 0.210390 -2.475503 521.110758 -10.278155 87.718610 -0.000005 -0.000002 -20.742804 -172.809578 -17.436447 98.923672 0.000000 0.000005 -16.666000 66.345002 17.833125 49.679832 -1.961897 0.232297 -2.727404 -532.847646 -8.808088 -127.729073 -0.000001 -0.000009 -20.526800 712.684505 153.353006 -290.898085 -0.000003 0.000003 -16.867300 -388.093753 24.819982 -22.955342
7.370708 40.343792 24.715792 1073.744096 17.212712 -19.673556 -0.637401 0.831598 5.390102 14.302688 1.004682 -10.909864 0.000001 0.000008 4.429906 -16.947926 -2.662794 -1.569472 -0.000002 0.000004 10.301399 321.302426 9.021670 8.768227 -0.000003 -0.000003 2.173898 -359.690384 0.205229 -3.221032 2.142399 -0.572696 5.717799 -21.267198 5.895687 -0.232897 5.673996 0.000006 -0.000001 106.212023 226.657492 124.563075 0.000004 -0.000003 -12.238693 286.698365 -560.697660 -129.630939 0.000001 0.000005 -10.253697 -580.864204 -13.727750 57.244174 -2.882603 -1.580100 6.695801 24.224738 16.518150 -4.959572 -4.235607 -0.000002 -0.000004 61.937146 -26.260213 49.936288 -0.000001 -0.000003 -10.709908 -35.290040 -27.321926 -32.388313 0.000001 0.000008 -11.716802 -341.603360 2.721416 18.772958 2.279494 0.210390 -2.475499 521.139609 -10.311720 87.711589 -0.000003 -0.000002 -20.742802 -172.820793 -17.312187 98.937810 -0.000002 -0.000001 -16.666000 66.293638 17.851019 49.549259 -1.961897 0.232290 -2.727391 -532.807484 -8.832144 -127.683843 0.000004 0.000001 -20.526806 712.613198 153.568703 -290.797326 -0.000003 0.000002 -16.867298 -388.234619 24.755570 -23.141466
7.369213 40.353600 24.717993 1073.714152 17.200452 -19.647961 -0.637400 0.831590 5.390099 14.315695 0.995125 -10.908072 -0.000004 -0.000003 4.429904 -16.928112 -2.686100 -1.568978 -0.000003 0.000008 10.301402 321.340156 9.058621 8.760917 -0.000002 -0.000003 2.173898 -359.673664 0.260608 -3.160297 2.142399 -0.572694 5.717807 -20.855505 5.772385 -0.328163 5.673999 0.000002 -0.000001 106.098540 226.772936 124.853030 0.000002 0.000004 -12.238693 286.586623 -560.754487 -129.642864 0.000003 0.000007 -10.253699 -580.868684 -13.747082 57.273817 -2.882603 -1.580095 6.695796 24.233940 16.502425 -5.059259 -4.235607 0.000004 0.000000 62.061489 -25.999520 50.038577 0.000004 -0.000007 -10.709908 -35.087891 -27.539389 -32.249517 -0.000002 -0.000004 -11.716802 -342.059097 2.702409 18.768559 2.279500 0.210397 -2.475500 521.167804 -10.327409 87.727237 -0.000003 -0.000001 -20.742804 -172.831899 -17.188729 98.950870 -0.000002 0.000004 -16.666002 66.243751 17.863456 49.454207 -1.961885 0.232294 -2.727402 -532.761913 -8.816434 -127.613479 0.000002 -0.000006 -20.526806 712.519651 153.860106 -290.677579 -0.000001 0.000004 -16.867300 -388.440863 24.665428 -23.350972
7.367111 40.364098 24.720795 1073.693826 17.209462 -19.617910 -0.637413 0.831602 5.390093 14.327273 0.968802 -10.903136 -0.000002 -0.000004 4.429897 -16.924970 -2.708418 -1.570668 0.000000 0.000001 10.301400 321.389716 9.091555 8.738350 -0.000000 0.000005 2.173901 -359.653282 0.329540 -3.099392 2.142397 -0.572704 5.717800 -20.818174 5.725806 -0.354575 5.674000 0.000004 0.000002 106.239440 226.857302 124.982025 0.000000 0.000003 -12.238703 286.509415 -560.810987 -129.681387 0.000002 0.000004 -10.253698 -580.906605 -13.747282 57.279343 -2.882604 -1.580101 6.695800 24.221943 16.459467 -5.108821 -4.235610 -0.000004 -0.000004 62.172733 -25.798217 50.076813 0.000002 -0.000003 -10.709909 -34.590373 -27.897313 -31.997309 -0.000004 0.000006 -11.716803 -342.722063 2.618927 18.781693 2.279488 0.210399 -2.475507 521.192174 -10.324991 87.756128 -0.000006 -0.000004 -20.742805 -172.846762 -17.078495 98.964230 -0.000003 0.000011 -16.666006 66.205392 17.872355 49.385987 -1.961902 0.232306 -2.727399 -532.716615 -8.770354 -127.529781 0.000008 -0.000002 -20.526802 712.417089 154.185291 -290.551876 0.000002 -0.000000 -16.867300 -388.684865 24.567589 -23.556385
7.364708 40.375702 24.723387 1073.685520 17.222442 -19.594168 -0.637406 0.831603 5.390098 14.329875 0.943579 -10.892643 0.000003 0.000004 4.429908 -16.932145 -2.728131 -1.573607 -0.000002 0.000002 10.301399 321.441024 9.113642 8.700695 -0.000006 -0.000003 2.173890 -359.793738 0.361528 -2.777860 2.142401 -0.572702 5.717803 -20.769874 5.651886 -0.395064 5.673997 0.000009 0.000003 106.370129 226.934169 125.111252 0.000001 0.000002 -12.238705 286.450129 -560.874480 -129.738118 0.000004 0.000003 -10.253702 -580.955236 -13.733986 57.264719 -2.882601 -1.580101 6.695801 24.194733 16.398922 -5.101634 -4.235606 0.000004 -0.000002 62.263362 -25.663543 50.060953 0.000007 -0.000005 -10.709896 -34.447137 -28.042504 -31.936226 0.000002 0.000001 -11.716800 -342.937569 2.497950 18.839641 2.279494 0.210402 -2.475502 521.204195 -10.311272 87.784993 -0.000004 -0.000004 -20.742804 -172.865763 -16.981435 98.977289 0.000001 0.000001 -16.666002 66.178495 17.888211 49.336762 -1.961902 0.232307 -2.727399 -532.676891 -8.720046 -127.459922 0.000002 -0.000005 -20.526804 712.343378 154.455521 -290.457346 -0.000003 0.000003 -16.867296 -388.896327 24.474733 -23.722065
7.362709 40.388000 24.725286 1073.685848 17.233394 -19.585477 -0.637403 0.831598 5.390095 14.324913 0.926887 -10.869761 -0.000005 0.000003 4.429903 -16.943013 -2.745376 -1.576943 0.000005 0.000005 10.301406 321.487087 9.127919 8.655566 -0.000000 -0.000002 2.173904 -359.778657 0.388295 -2.759454 2.142398 -0.572700 5.717801 -20.761468 5.574667 -0.747159 5.673997 0.000007 -0.000003 106.590389 227.278834 125.331895 0.000004 -0.000003 -12.238703 286.432589 -560.938739 -129.803087 0.000006 0.000010 -10.253698 -581.015342 -13.712058 57.238621 -2.882602 -1.580092 6.695805 24.165841 16.338338 -5.051005 -4.235601 -0.000004 -0.000004 62.322676 -25.600425 50.013186 0.000004 -0.000010 -10.709898 -34.773774 -27.911233 -32.129391 0.000001 -0.000001 -11.716803 -342.583601 2.351112 18.939901 2.279499 0.210398 -2.475507 521.204687 -10.286423 87.803735 -0.000004 -0.000002 -20.742805 -172.889778 -16.887880 98.990581 -0.000001 0.000004 -16.666000 66.153811 17.909511 49.291491 -1.961897 0.232292 -2.727405 -532.650499 -8.673257 -127.406592 0.000001 -0.000007 -20.526804 711.314260 157.774365 -289.705807 -0.000000 0.000000 -16.867300 -392.126023 24.338133 -24.239513
7.361015 40.401100 24.725895 1073.597766 17.138997 -19.562627 -0.637397 0.831599 5.390098 14.366625 1.040478 -10.872937 0.000001 0.000001 4.429900 -16.951505 -2.759039 -1.579788 0.000000 0.000005 10.301397 321.511921 9.130633 8.624942 -0.000003 -0.000002 2.173888 -359.744943 0.395105 -2.753018 2.142401 -0.572701 5.717804 -20.708032 5.503556 -0.708278 5.673998 0.000010 -0.000001 106.571394 227.204795 125.330406 0.000001 0.000001 -12.238703 286.475018 -560.996003 -129.870282 -0.000002 0.000010 -10.253698 -581.091949 -13.687878 57.202073 -2.882600 -1.580102 6.695797 24.147116 16.296358 -4.966559 -4.235609 -0.000010 -0.000004 62.346260 -25.607351 49.959074 0.000003 0.000002 -10.709902 -34.957540 -27.851824 -32.294671 -0.000005 0.000007 -11.716803 -342.341458 2.239359 19.087930 2.279500 0.210395 -2.475505 521.239493 -10.375646 87.771086 -0.000003 -0.000006 -20.742805 -172.914257 -16.790657 99.002035 -0.000009 -0.000001 -16.666002 66.125315 17.939365 49.244148 -1.961895 0.232296 -2.727405 -532.592743 -8.751663 -127.372496 0.000000 -0.000007 -20.526802 711.318686 157.791208 -289.712746 -0.000002 -0.000007 -16.867300 -392.118537 24.265574 -24.290538
7.359802 40.414692 24.725090 1073.606071 17.113811 -19.570155 -0.637403 0.831598 5.390102 14.346763 1.063344 -10.857781 0.000003 0.000005 4.429902 -16.950819 -2.770551 -1.581158 0.000004 -0.000001 10.301401 321.511020 9.122536 8.617279 -0.000002 -0.000003 2.173900 -359.714481 0.381367 -2.765970 2.142401 -0.572691 5.717801 -20.673149 5.466709 -0.681130 5.673995 0.000006 -0.000002 106.504424 227.141383 125.267104 0.000004 0.000003 -12.238701 286.539987 -561.048240 -129.927328 0.000002 -0.000001 -10.253698 -581.163530 -13.674115 57.151861 -2.882600 -1.580092 6.695800 24.156677 16.294198 -4.886980 -4.235603 0.000004 0.000000 62.377884 -25.604141 49.957844 -0.000002 -0.000002 -10.709898 -35.096070 -27.863420 -32.442060 -0.000001 0.000002 -11.716804 -342.203652 2.172020 19.277371 2.279493 0.210404 -2.475503 521.217965 -10.367257 87.769392 -0.000003 -0.000008 -20.742805 -172.940772 -16.701974 99.009671 -0.000006 0.000002 -16.665998 66.097742 17.976233 49.197675 -1.961902 0.232302 -2.727391 -532.612578 -8.730367 -127.377741 0.000004 0.000007 -20.526806 711.321746 157.815359 -289.745968 -0.000003 0.000001 -16.867298 -392.127936 24.203704 -24.313969
